<?xml version="1.0" encoding="utf-8"?>
<svg version="1.1" id="Layer_1"
xmlns="http://www.w3.org/2000/svg"
xmlns:xlink="http://www.w3.org/1999/xlink"
width="252px" height="113px"
xml:space="preserve">
<g id="PathID_9" transform="matrix(1.36476, 0, 0, 1.36476, 12.35, 80.2)" opacity="1">
<path style="fill:#A1A1A1;fill-opacity:1" d="M17.4 -4.65Q29.75 -4.65 29.75 -18.95Q29.75 -31.35 17.4 -31.35L9.2 -31.35L9.2 -4.65L17.4 -4.65M3.65 0L3.65 -36.05L18.4 -36.05Q35.35 -36.05 35.35 -18.95Q35.35 0 18.4 0L3.65 0" />
</g>
<g id="PathID_10" transform="matrix(1.36476, 0, 0, 1.36476, 62.45, 80.2)" opacity="1">
<path style="fill:#A1A1A1;fill-opacity:1" d="M2.95 -26.75L22.85 -26.75L22.85 -22.4L8.95 -4.4L22.35 -4.4L22.35 0L2.45 0L2.45 -4.1L16.55 -22.05L2.95 -22.05L2.95 -26.75" />
</g>
<g id="PathID_11" transform="matrix(1.27377, 0, 0, 1.27377, 98.2, 71.3)" opacity="1">
<path style="fill:#208A55;fill-opacity:1" d="M3.75 0L3.75 -35.75L19 -35.75Q29.2 -35.75 29.2 -27.15Q29.2 -17.5 14.95 -15.2L14 -19.1Q24.25 -20.7 24.25 -26.95Q24.25 -31.9 18.55 -31.9L8.35 -31.9L8.35 0L3.75 0" />
</g>
<g id="PathID_12" transform="matrix(1.27377, 0, 0, 1.27377, 136.65, 71.3)" opacity="1">
<path style="fill:#208A55;fill-opacity:1" d="M3.75 0L3.75 -26.25L6.85 -26.25L7.7 -22.9Q11.15 -26.25 16 -26.25L16 -22.4Q11.3 -22.4 8.35 -19.05L8.35 0L3.75 0" />
</g>
<g id="PathID_13" transform="matrix(1.27377, 0, 0, 1.27377, 156.95, 71.3)" opacity="1">
<path style="fill:#208A55;fill-opacity:1" d="M15 -3.75Q22.85 -3.75 22.85 -13.2Q22.85 -22.5 15 -22.5Q7.1 -22.5 7.1 -13.2Q7.1 -3.75 15 -3.75M2.5 -13.1Q2.5 -26.25 15 -26.25Q27.5 -26.25 27.5 -13.1Q27.5 0 15 0Q2.55 0 2.5 -13.1" />
</g>
<g id="PathID_14" transform="matrix(0.137328, 0, 0, 0.137328, 151.4, 26.65)" opacity="1">
<path style="fill:#FF0000;fill-opacity:1" d="M28.15 -16.1L69.5 15.6L17.45 16.95L0.1 66.15L-17.35 16.95L-69.5 15.6L-52.2 2L-28.05 -16.1L-42.95 -66.1L0.1 -36.5L42.95 -66.1L28.15 -16.1" />
</g>
<g id="PathID_15" transform="matrix(-0.71584, -0.12761, 0.12761, -0.71584, 199.85, 58.2)" opacity="1">
<path style="fill:#BEBDBF;fill-opacity:1" d="M59.05 -28.8L56.95 -31.1Q44.05 -44 25.75 -44Q7.45 -44 -5.45 -31.1Q-18.3 -18.25 -18.3 0.1Q-18.3 18.4 -5.45 31.25Q7.45 44.15 25.75 44.15Q44.05 44.15 56.95 31.25L58.95 29.2Q54.55 37.25 47.6 44.2Q29.3 62.5 3.45 62.5Q-22.45 62.5 -40.75 44.2Q-59.05 25.9 -59.05 0Q-59.05 -25.85 -40.75 -44.15Q-22.45 -62.5 3.45 -62.5Q29.3 -62.5 47.6 -44.15Q54.75 -37.05 59.05 -28.8" />
</g>
<g id="PathID_16" transform="matrix(0.523317, 0, 0, 1, 124.85, 77.2)" opacity="1">
<path style="fill:#208A55;fill-opacity:1" d="M53.6 -2.1Q54.5 -1.2 54.5 0Q54.5 1.2 53.6 2.1Q52.7 3 51.5 3L-51.5 3Q-52.7 3 -53.6 2.1Q-54.5 1.2 -54.5 0Q-54.5 -1.2 -53.6 -2.1Q-52.7 -3 -51.5 -3L51.5 -3Q52.7 -3 53.6 -2.1" />
</g>
</svg>
